<?xml version="1.0" encoding="UTF-8"?>
<svg id="Layer_2" data-name="Layer 2" xmlns="http://www.w3.org/2000/svg" viewBox="0 0 94.81 28.66">
  <defs>
    <style>
      .cls-1 {
        fill: #f15a29;
      }
    </style>
  </defs>
  <g id="Layer_1-2" data-name="Layer 1">
    <g>
      <path class="cls-1" d="M.56,25.24c-1.44-1.22.14-3.49,1.84-2.59.61.32.79.61.79,1.4s-.18,1.12-.79,1.4c-.76.4-1.19.36-1.84-.22Z"/>
      <path class="cls-1" d="M9.09,25.81c-.22-1.12-1.04-8.67-1.22-11.3-.11-1.48-.22-4.54-.22-6.77V3.64l-.86.14c-.5.07-1.22.18-1.58.22-.58.11-.76.04-1.26-.47-.86-.86-.65-2.02.43-2.52C5.21.65,8.95.04,12.01,0c1.37,0,2.59-.07,3.02.4.61.68.65,1.66,0,2.27-.4.43-.61.47-1.98.47-.86,0-1.66.07-1.8.14-.36.25-.5,5.33-.25,9.58.11,1.98.47,5.76.79,8.35.29,2.63.68,4.39.54,5-.18.79-1.19,1.58-1.94,1.3-.72-.32-1.15-.94-1.3-1.69Z"/>
      <path class="cls-1" d="M21.69,2.16c1.51,1.26,1.91,2.09,3.1,13.25.22,1.98.58,4.46.79,5.58.22,1.08.32,2.16.25,2.41-.29,1.19-1.76,1.62-2.63.76-.36-.36-.54-.94-.9-2.77l-.43-2.34-.76.11c-.43.07-1.04.25-1.8.29-.76.07-1.48.22-1.55.32-.11.14-.29,1.26-.4,2.52-.25,2.27-.4,2.84-.94,3.24-.54.4-1.51.29-2.02-.22-.61-.58-.61-.68.07-7.2,1.19-11.16,1.98-12.85,3.6-15.23.58-.83,1.4-1.26,2.23-1.26.47,0,.97.18,1.37.54ZM18.35,13.32c-.4,3.42-.61,3.1,1.73,2.77.76-.11,1.15-.32,1.26-.4.32-.22-.72-8.75-1.15-9.18t-.07-.04c-.4.07-1.22,2.09-1.76,6.84Z"/>
      <path class="cls-1" d="M28.14,23.37c-1.62-.4-2.23-1.94-1.15-3.02.47-.47.65-.54,1.15-.43,1.22.29,2.48.22,2.92-.14.86-.79.47-1.66-1.94-4.25-2.05-2.2-2.59-3.28-2.59-5.11.04-2.92,2.27-5.87,4.5-5.87.61,0,.94.11,1.26.43.86.86.47,2.38-.68,2.7-1.4.36-2.27,2.56-1.55,3.92.14.32.97,1.33,1.84,2.23,2.45,2.59,3.17,4.18,2.74,6.01-.29,1.19-1.51,2.59-2.74,3.13-1.12.47-2.7.61-3.74.4Z"/>
      <path class="cls-1" d="M39.91,17.82c-.47-.65-.83-1.15-.86-1.12s.04,1.48.14,3.24c.18,2.92.18,3.28-.11,3.71-.61.94-1.98.83-2.56-.18-.43-.76-.72-4.32-.86-11.01-.14-6.62-.04-8.17.65-8.78.65-.61,1.4-.54,2.12.11.65.58.47,2.09.43,3.38l-.14,2.81.5-.32c.94-.61,4.97-5.51,5.98-7.24.29-.47.68-1.01.9-1.15.97-.68,2.38.04,2.38,1.22,0,1.3-2.66,5.04-6.12,8.6-.94.97-1.73,1.84-1.73,1.91,0,.43,4,5.98,6.41,8.89,1.3,1.55,1.62,2.09,1.62,2.56,0,.83-.14,1.15-.76,1.44-.61.32-.86.36-1.44.07-.61-.32-4.21-4.79-6.55-8.13Z"/>
      <path class="cls-1" d="M59.53,5.22c.4,1.12.4,3.56,0,5-.58,2.34-3.46,7.34-5.65,9.83l-.76.83.11,2.38c.14,2.59,0,3.1-.79,3.46-.54.25-.76.25-1.33,0-.61-.22-.94-1.12-1.08-3.13-.18-3.13-.65-15.51-.65-18.18,0-2.3.04-2.66.4-3.24.54-.9,1.22-1.19,2.74-1.19,3.17,0,6.19,1.84,7.02,4.25ZM52.62,7.92c.07,2.09.18,4.75.25,5.9l.11,2.09.79-1.15c.4-.65,1.01-1.66,1.33-2.2.97-1.73,1.62-3.85,1.51-5.15-.04-.68-.22-1.37-.4-1.66-.36-.58-1.94-1.37-3.02-1.55l-.68-.11.11,3.82Z"/>
      <path class="cls-1" d="M64.24,3.82c.32.29.5.72.5,1.15.04,1.4-.11,5.58-.25,9.57-.14,4.03-.29,7.74-.29,7.74-.04.43-.22.86-.54,1.15-.32.29-.72.47-1.15.43-.43,0-.86-.22-1.15-.54-.29-.32-.43-.72-.4-1.15,0,0,.14-3.74.29-7.74.14-4.03.29-8.46.25-9.39-.04-.86.68-1.62,1.55-1.69.47,0,.86.14,1.19.47Z"/>
      <path class="cls-1" d="M81.45,23.11c.9.97.54,2.27-1.69,3.38-3.49,1.73-6.88,2.2-8.17,2.16-.58,0-1.22-.07-1.4-.18-.79-.43-1.44-1.22-1.8-2.2-1.19-2.74-1.55-7.45-1.62-9.97-.07-3.31-.14-5.98.54-10.11.5-2.84.76-3.49,1.66-3.82.61-.22,1.3.07,1.73.76.29.47.29.61-.18,3.6-.61,3.74-.58,6.19-.61,8.71,0,1.94.25,7.81,1.66,9.94.18.29,3.64-.25,6.77-1.91,1.55-.83,2.38-1.19,3.13-.36ZM72.49,16.2c-.4-1.44-.4-4.5,0-6.12.79-3.49,3.1-5.87,5.33-5.87.47,0,.94.11,1.37.32,1.12.54,2.41,2.02,2.88,3.24,1.04,2.81.79,7.02-.54,9.68-.54,1.04-1.84,2.38-2.7,2.77-.83.4-2.12.43-3.06.11-1.48-.54-2.74-2.12-3.28-4.14ZM76.41,16.96c.54.54.79.58,1.37.18,2.02-1.44,2.3-8.39.4-9.43-.14-.07-.32-.14-.5-.11-.32,0-.68.29-1.04.83-.76,1.08-1.08,2.23-1.19,4.14-.11,2.09.22,3.67.97,4.39Z"/>
      <path class="cls-1" d="M88.4,25.81c-.22-1.12-1.04-8.67-1.22-11.3-.11-1.48-.22-4.54-.22-6.77V3.64l-.86.14c-.5.07-1.22.18-1.58.22-.58.11-.76.04-1.26-.47-.86-.86-.65-2.02.43-2.52.83-.36,4.57-.97,7.63-1.01,1.37,0,2.59-.07,3.02.4.61.68.65,1.66,0,2.27-.4.43-.61.47-1.98.47-.86,0-1.66.07-1.8.14-.36.25-.5,5.33-.25,9.58.11,1.98.47,5.76.79,8.35.29,2.63.68,4.39.54,5-.18.79-1.19,1.58-1.94,1.3-.72-.32-1.15-.94-1.3-1.69Z"/>
    </g>
  </g>
</svg>